<svg width="17" height="16" viewBox="0 0 17 16" fill="none" xmlns="http://www.w3.org/2000/svg">
<path d="M8.5 2.5C5.4625 2.5 3 4.9625 3 8C3 11.0375 5.4625 13.5 8.5 13.5C11.5375 13.5 14 11.0375 14 8C14 4.9625 11.5375 2.5 8.5 2.5ZM8.5 3.5C10.9852 3.5 13 5.51475 13 8C13 10.4852 10.9852 12.5 8.5 12.5C6.01475 12.5 4 10.4852 4 8C4 5.51475 6.01475 3.5 8.5 3.5ZM8.49609 4.99854C8.32309 4.99854 8.18271 5.05148 8.07471 5.15723C7.96646 5.26273 7.91517 5.39472 7.91992 5.55322L7.99902 8.51514C8.00877 8.84664 8.17667 9.0127 8.50342 9.0127C8.82067 9.0127 8.98183 8.84688 8.98633 8.51562L9.08008 5.56055C9.08483 5.40205 9.03097 5.26864 8.91797 5.16064C8.80522 5.05239 8.66434 4.99854 8.49609 4.99854ZM8.5 9.67285C8.11625 9.67285 7.87305 9.99721 7.87305 10.2725C7.87305 10.5477 8.108 10.8721 8.5 10.8721C8.892 10.8721 9.12695 10.5652 9.12695 10.2725C9.12695 9.97971 8.88375 9.67285 8.5 9.67285Z" fill="#F2EBEF"/>
</svg> 