<svg width="24" height="25" viewBox="0 0 24 25" fill="none" xmlns="http://www.w3.org/2000/svg">
<path d="M4.5 5C3.67162 5 3 5.67162 3 6.5V9.5C3 9.93313 3.36725 10.2804 3.80713 10.2478C4.42325 10.2024 5.04463 10.3886 5.41626 10.8821C6.80413 12.7248 5.50516 14.7549 3.74341 14.75C3.33128 14.7489 3 15.0883 3 15.5V18.5C3 19.3284 3.67162 20 4.5 20H19.5C20.3284 20 21 19.3284 21 18.5V15.5C21 15.0669 20.6327 14.7196 20.1929 14.7522C19.5767 14.7976 18.9554 14.6114 18.5837 14.1179C17.1959 12.2752 18.4948 10.2451 20.2566 10.25C20.6687 10.2511 21 9.91175 21 9.5V6.5C21 5.67162 20.3284 5 19.5 5H4.5ZM4.875 6.5H19.125C19.332 6.5 19.5 6.668 19.5 6.875V8.82544C17.7904 9.17381 16.5 10.6891 16.5 12.5C16.5 14.3109 17.7904 15.8258 19.5 16.1746V18.125C19.5 18.332 19.332 18.5 19.125 18.5H4.875C4.668 18.5 4.5 18.332 4.5 18.125V16.1746C6.20963 15.8262 7.5 14.3109 7.5 12.5C7.5 10.6891 6.20963 9.17419 4.5 8.82544V6.875C4.5 6.668 4.668 6.5 4.875 6.5ZM12 9.3125C11.8711 9.31255 11.7419 9.38368 11.6858 9.52637L11.0691 11.1047L9.3772 11.2043C9.07157 11.222 8.94721 11.6063 9.18384 11.8005L10.4941 12.875L10.0657 14.5149C9.98842 14.8111 10.3145 15.0483 10.5725 14.8833L12 13.9692L13.4275 14.8833C13.6855 15.0487 14.0116 14.8111 13.9343 14.5149L13.5059 12.875L14.8162 11.7998C15.0532 11.6056 14.9277 11.2223 14.6221 11.2043L12.9309 11.1047L12.3135 9.52637C12.2576 9.38387 12.1289 9.31245 12 9.3125Z" fill="#F2EBEF"/>
</svg> 