<svg width="24" height="25" viewBox="0 0 24 25" fill="none" xmlns="http://www.w3.org/2000/svg">
<path d="M7.5 4.25C6.25725 4.25 5.25 5.25725 5.25 6.5V18.5C5.25 19.7428 6.25725 20.75 7.5 20.75H16.5C17.7428 20.75 18.75 19.7428 18.75 18.5V6.5C18.75 5.25725 17.7428 4.25 16.5 4.25H7.5ZM7.5 5.75H9.375C9.375 6.37138 9.87862 6.875 10.5 6.875H13.5C14.1214 6.875 14.625 6.37138 14.625 5.75H16.5C16.9144 5.75 17.25 6.08562 17.25 6.5V18.5C17.25 18.9144 16.9144 19.25 16.5 19.25H7.5C7.08562 19.25 6.75 18.9144 6.75 18.5V6.5C6.75 6.08562 7.08562 5.75 7.5 5.75ZM15.1868 9.875C15.0429 9.875 14.8989 9.92992 14.7891 10.0398L14.0618 10.7671L13.7102 10.4148C13.4905 10.195 13.1345 10.195 12.9148 10.4148C12.695 10.6342 12.695 10.9908 12.9148 11.2102L13.6648 11.9602C13.7747 12.0701 13.9185 12.125 14.0625 12.125C14.2065 12.125 14.3503 12.0701 14.4595 11.9602L15.5845 10.8352C15.8042 10.6158 15.8042 10.2592 15.5845 10.0398C15.4746 9.92992 15.3307 9.875 15.1868 9.875ZM8.8125 10.625C8.502 10.625 8.25 10.8766 8.25 11.1875C8.25 11.4984 8.502 11.75 8.8125 11.75H11.0625C11.373 11.75 11.625 11.4984 11.625 11.1875C11.625 10.8766 11.373 10.625 11.0625 10.625H8.8125ZM15.1868 13.625C15.0429 13.625 14.8989 13.6799 14.7891 13.7898L14.0618 14.5171L13.7102 14.1648C13.4905 13.945 13.1345 13.945 12.9148 14.1648C12.695 14.3842 12.695 14.7408 12.9148 14.9602L13.6648 15.7102C13.7747 15.8201 13.9185 15.875 14.0625 15.875C14.2065 15.875 14.3503 15.8201 14.4595 15.7102L15.5845 14.5852C15.8042 14.3658 15.8042 14.0092 15.5845 13.7898C15.4746 13.6799 15.3307 13.625 15.1868 13.625ZM8.8125 14.375C8.502 14.375 8.25 14.6266 8.25 14.9375C8.25 15.2484 8.502 15.5 8.8125 15.5H11.0625C11.373 15.5 11.625 15.2484 11.625 14.9375C11.625 14.6266 11.373 14.375 11.0625 14.375H8.8125Z" fill="#F2EBEF"/>
</svg> 