<svg width="24" height="25" viewBox="0 0 24 25" fill="none" xmlns="http://www.w3.org/2000/svg">
<path d="M3.375 6.125C2.96062 6.125 2.625 6.46062 2.625 6.875V15.5C2.625 15.9144 2.96062 16.25 3.375 16.25H10.3176C10.5269 16.5577 10.8189 16.8204 11.1782 17.0044C12.3366 17.5973 13.4106 18.1266 14.2705 18.5432C14.863 18.8301 15.3533 19.0638 15.6995 19.2273C15.8281 19.288 16.0277 19.3489 16.2737 19.3489C16.8647 19.3489 18.1159 19.3563 18.4666 19.3035C20.1207 19.0545 21.375 17.6463 21.375 15.9614V13.5986C21.375 12.7781 21.0764 11.9885 20.5364 11.3757L18.0176 8.50171C17.4333 7.83571 16.5859 7.4375 15.75 7.4375V6.875C15.75 6.46062 15.4144 6.125 15 6.125H3.375ZM4.3125 7.625H14.0625C14.166 7.625 14.25 7.709 14.25 7.8125V8.1875V13.5408L12.4849 13.0918C11.4427 12.8615 10.4064 13.4482 10.0737 14.4453C10.039 14.5444 10.0136 14.6467 9.99463 14.75H4.3125C4.209 14.75 4.125 14.666 4.125 14.5625V7.8125C4.125 7.709 4.209 7.625 4.3125 7.625ZM7.3125 8.75C6.74775 8.75 6.29004 9.25362 6.29004 9.875C6.29004 10.4964 6.74775 11 7.3125 11C7.87725 11 8.33496 10.4964 8.33496 9.875C8.33496 9.25362 7.87725 8.75 7.3125 8.75ZM15.75 8.9375C16.1602 8.9375 16.5863 9.14435 16.8896 9.49048L19.4099 12.366C19.7099 12.7061 19.875 13.1438 19.875 13.5986V15.9614C19.875 16.8974 19.182 17.6775 18.2644 17.8174C17.5932 17.9194 16.598 17.986 16.3396 17.8701C15.9245 17.6841 15.469 17.4579 14.8484 17.1567C14.0095 16.7499 12.9749 16.2381 11.8616 15.6685C11.6099 15.5395 11.4595 15.3341 11.4595 15.1177C11.4595 15.0562 11.4692 14.9969 11.4924 14.9309C11.5723 14.6913 11.7976 14.5383 12.0278 14.5383C12.0646 14.5383 12.1006 14.5429 12.137 14.5508L14.8147 15.2327C15.0386 15.2897 15.2773 15.2408 15.4607 15.0986C15.6433 14.9565 15.75 14.7379 15.75 14.5061V8.9375ZM7.3125 11.5625C6.8445 11.5625 6.36969 11.668 5.87769 12.0408C5.64969 12.2136 5.25 12.644 5.25 13.1387C5.25 13.4049 5.5114 13.4375 5.59277 13.4375H9.03223C9.1136 13.4375 9.375 13.4053 9.375 13.1387C9.375 12.6437 8.97531 12.2136 8.74731 12.0408C8.25531 11.668 7.7805 11.5625 7.3125 11.5625Z" fill="#F2EBEF"/>
</svg> 