<svg width="20" height="20" viewBox="0 0 20 20" fill="none" xmlns="http://www.w3.org/2000/svg">
<path d="M10 2.8125C6.72094 2.8125 4.0625 5.47094 4.0625 8.75C4.0625 12.8125 9.27305 17.1362 9.49524 17.3187C9.6418 17.4397 9.82094 17.5 10 17.5C10.1791 17.5 10.3582 17.4397 10.5048 17.3187C10.7269 17.1362 15.9375 12.8125 15.9375 8.75C15.9375 5.47094 13.2791 2.8125 10 2.8125ZM10 4.0625C12.5847 4.0625 14.6875 6.16531 14.6875 8.75C14.6875 11.3759 11.7728 14.5721 10 16.109C8.22813 14.5731 5.3125 11.3763 5.3125 8.75C5.3125 6.16531 7.41531 4.0625 10 4.0625ZM10 7.19055C9.1375 7.19055 8.4375 7.8875 8.4375 8.75C8.4375 9.6125 9.1375 10.3094 10 10.3094C10.8625 10.3094 11.5625 9.6125 11.5625 8.75C11.5625 8.5875 11.5373 8.43118 11.4935 8.2843C11.3717 8.55618 11.1 8.75 10.7812 8.75C10.35 8.75 10 8.39993 10 7.9718C10 7.65305 10.1908 7.37827 10.4626 7.25952C10.3158 7.21577 10.1594 7.19055 10 7.19055Z" fill="#E5DFE2"/>
</svg> 