<svg width="20" height="20" viewBox="0 0 20 20" fill="none" xmlns="http://www.w3.org/2000/svg">
<path d="M6.875 2.8125C6.53 2.8125 6.25 3.0925 6.25 3.4375V4.0625H13.75V3.4375C13.75 3.0925 13.47 2.8125 13.125 2.8125H6.875ZM5.625 4.6875C5.28 4.6875 5 4.9675 5 5.3125V5.9375H15V5.3125C15 4.9675 14.72 4.6875 14.375 4.6875H5.625ZM5.3125 6.5625C4.27844 6.5625 3.4375 7.40344 3.4375 8.4375V15.3125C3.4375 16.3466 4.27844 17.1875 5.3125 17.1875H14.6875C15.7216 17.1875 16.5625 16.3466 16.5625 15.3125V8.4375C16.5625 7.40344 15.7216 6.5625 14.6875 6.5625H5.3125ZM5.3125 7.8125H14.6875C15.0322 7.8125 15.3125 8.09281 15.3125 8.4375V15.3125C15.3125 15.6572 15.0322 15.9375 14.6875 15.9375H5.3125C4.96781 15.9375 4.6875 15.6572 4.6875 15.3125V8.4375C4.6875 8.09281 4.96781 7.8125 5.3125 7.8125ZM12.3065 8.74573C12.2704 8.73759 12.2321 8.73726 12.193 8.74695L10.0793 9.27307C9.84935 9.33026 9.6875 9.53698 9.6875 9.77417V12.0795C9.6875 12.5742 9.44936 12.6879 8.90686 12.807C8.17624 12.9676 7.8125 13.3634 7.8125 13.9594C7.8125 14.6056 8.34455 15 9.12048 15C9.90736 15 10.625 14.5097 10.625 12.8906V10.9467C10.625 10.8645 10.6817 10.7927 10.7617 10.7739L12.2168 10.4346C12.3827 10.3958 12.5 10.2475 12.5 10.0769V8.98682C12.5 8.86635 12.4149 8.77013 12.3065 8.74573Z" fill="#E5DFE2"/>
</svg> 