<svg width="24" height="25" viewBox="0 0 24 25" fill="none" xmlns="http://www.w3.org/2000/svg">
  <path d="M12 3.54102C11.8392 3.54097 11.6784 3.56673 11.5254 3.61792L5.52539 5.61743C4.91189 5.82181 4.5 6.39403 4.5 7.04053V15.3682C4.5 16.876 5.24916 18.2757 6.50391 19.1123L10.5439 21.8054C10.9861 22.1002 11.493 22.2478 12 22.2478C12.507 22.2478 13.0139 22.1002 13.4561 21.8054L17.4961 19.1123C18.7508 18.2757 19.5 16.876 19.5 15.3682V7.04053C19.5 6.39403 19.0881 5.82218 18.4746 5.61743L12.4746 3.61792C12.3218 3.56692 12.1608 3.54106 12 3.54102ZM12 5.04248C12.0041 5.04248 12.0076 5.04282 12.0117 5.04395L17.9744 7.03174C17.9894 7.03699 18 7.0515 18 7.06763V15.3682C18 16.3713 17.4988 17.3081 16.6641 17.8643L12.624 20.5574C12.2449 20.8101 11.7551 20.8101 11.376 20.5574L7.33594 17.8643C6.50119 17.3081 6 16.3713 6 15.3682V7.06763C6 7.0515 6.01063 7.03699 6.02563 7.03174L11.9883 5.04395C11.992 5.04282 11.9959 5.04248 12 5.04248ZM12 8.1875C11.586 8.1875 11.25 8.5235 11.25 8.9375V12.6875C11.25 13.1015 11.586 13.4375 12 13.4375C12.4144 13.4375 12.75 13.1015 12.75 12.6875V8.9375C12.75 8.5235 12.4144 8.1875 12 8.1875ZM12 14.5625C11.3786 14.5625 10.875 15.0661 10.875 15.6875C10.875 16.3089 11.3786 16.8125 12 16.8125C12.6214 16.8125 13.125 16.3089 13.125 15.6875C13.125 15.0661 12.6214 14.5625 12 14.5625Z" fill="#F2EBEF"/>
</svg>